<?xml version="1.0" encoding="UTF-8"?>
<svg id="_Слой_2" data-name="Слой 2" xmlns="http://www.w3.org/2000/svg" viewBox="0 0 233.55 208.96">
  <defs>
    <style>
      .cls-1 {
        stroke: #1d1d1b;
        stroke-miterlimit: 10;
      }
    </style>
  </defs>
  <g id="_Слой_4" data-name="Слой 4">
    <path class="cls-1" d="m232.06,22.87c1.53-5.19-31.32,3.83-31.32,3.83,0,0-44.42,10.56-37.11,60.6,7.32,50.04-2.72,65.7-2.72,65.7,2.04-46.98-57.36-53.96-57.36-53.96,21.62-6.29,34.81-23.74,44.02-37.06s3.81-13.66,3.81-13.66c0,0-34.64-5.11-70.64-20.34C44.74,12.75,34.91-5.42,32.61,2.36c-2.29,7.79,9.66,24.3,9.66,24.3-1.7-.04-21.49-10.55-27.74-16.47C8.27,4.28,5.72,1.3,2.15,3.47-1.43,5.64.23,42.41,13,84.83c12.76,42.43,43.74,78.47,43.74,78.47,6.13-18.3,13.79-26.55,18.13-24.94,4.34,1.62,3.32,6.56-1.79,22.56-5.1,16-3.57,17.53-3.57,17.53,0,0,5.95,6.64,15.91-13.19,9.96-19.83,18.21-17.88,18.21-17.88,0,0,13.03,2.3,8.52,17.28-4.52,14.98-25.71,26.64-25.71,26.64,6.27,5.56,19.15,12.31,26.43,15.91,3.35,1.66,7.3,1.67,10.66.02C250.94,144.85,232.06,22.87,232.06,22.87Zm-161.19,55.41s-24-.43-31.32-17.7c0,0,12.68-11.83,32.34-7.58,0,0-17.53,9.7-1.02,25.28Zm8.85,1.1c16.77-13.87,1.96-25.1,1.96-25.1,20.76,2.11,29.87,13.95,29.87,13.95-14.47,14.05-31.83,11.15-31.83,11.15Z"/>
  </g>
</svg>